<svg width="90" height="18" viewBox="0 0 90 18" fill="none" xmlns="http://www.w3.org/2000/svg">
<path d="M6.865 3.81529C7.01167 3.81529 7.085 3.89529 7.085 4.05529L6.805 6.29529C6.79167 6.36196 6.75833 6.42196 6.705 6.47529C6.665 6.51529 6.61167 6.53529 6.545 6.53529H4.705C4.67833 6.53529 4.65167 6.54863 4.625 6.57529C4.61167 6.58863 4.605 6.60863 4.605 6.63529L3.705 13.9353C3.69167 14.002 3.65833 14.062 3.605 14.1153C3.565 14.1553 3.51167 14.1753 3.445 14.1753H0.685C0.618333 14.1753 0.565 14.1553 0.525 14.1153C0.485 14.062 0.471667 14.002 0.485 13.9353L1.385 6.63529C1.385 6.56863 1.35833 6.53529 1.305 6.53529H0.205C0.138333 6.53529 0.085 6.51529 0.045 6.47529C0.00499995 6.42196 -0.00833334 6.36196 0.00500002 6.29529L0.285 4.05529C0.298333 3.98862 0.325 3.93529 0.365 3.89529C0.418333 3.84196 0.478333 3.81529 0.545 3.81529H1.625C1.705 3.81529 1.745 3.78196 1.745 3.71529L1.805 3.17529C1.89833 2.38863 2.105 1.77529 2.425 1.33529C2.75833 0.881958 3.23167 0.568625 3.845 0.395292C4.47167 0.208625 5.29167 0.135292 6.305 0.175291H7.105C7.17167 0.175291 7.225 0.201958 7.265 0.255291C7.305 0.295292 7.31833 0.348625 7.305 0.415292L7.085 2.23529C7.07167 2.30196 7.03833 2.36196 6.985 2.41529C6.945 2.45529 6.89167 2.47529 6.825 2.47529H6.065C5.71833 2.50196 5.465 2.58863 5.305 2.73529C5.145 2.88196 5.03833 3.12862 4.985 3.47529L4.965 3.71529C4.965 3.78196 4.99167 3.81529 5.045 3.81529H6.865Z" fill="black"/>
<path d="M14.1598 4.07529C14.1732 4.00863 14.1998 3.95529 14.2398 3.91529C14.2932 3.86196 14.3532 3.83529 14.4198 3.83529H17.1798C17.2465 3.83529 17.2998 3.86196 17.3398 3.91529C17.3798 3.95529 17.3932 4.00863 17.3798 4.07529L16.1798 13.9353C16.1665 14.002 16.1332 14.062 16.0798 14.1153C16.0398 14.1553 15.9865 14.1753 15.9198 14.1753H13.1598C13.0932 14.1753 13.0398 14.1553 12.9998 14.1153C12.9598 14.062 12.9465 14.002 12.9598 13.9353L13.0398 13.2353C13.0532 13.1953 13.0465 13.1686 13.0198 13.1553C12.9932 13.142 12.9665 13.1553 12.9398 13.1953C12.3265 13.9553 11.4598 14.3353 10.3398 14.3353C9.45984 14.3353 8.75984 14.082 8.23984 13.5753C7.71984 13.0553 7.45984 12.322 7.45984 11.3753C7.45984 11.082 7.47318 10.8553 7.49984 10.6953L8.29984 4.07529C8.31318 4.00863 8.34651 3.95529 8.39984 3.91529C8.45318 3.86196 8.51318 3.83529 8.57984 3.83529H11.3198C11.3865 3.83529 11.4398 3.86196 11.4798 3.91529C11.5198 3.95529 11.5332 4.00863 11.5198 4.07529L10.7998 9.93529L10.7798 10.1953C10.7798 10.5953 10.8798 10.9086 11.0798 11.1353C11.2798 11.362 11.5598 11.4753 11.9198 11.4753C12.2798 11.4753 12.5932 11.362 12.8598 11.1353C13.1265 10.9086 13.3132 10.6086 13.4198 10.2353L14.1598 4.07529Z" fill="black"/>
<path d="M24.9244 6.25529C24.9244 6.32196 24.8977 6.38196 24.8444 6.43529C24.791 6.47529 24.731 6.49529 24.6644 6.49529H22.9044C22.8377 6.49529 22.8044 6.52863 22.8044 6.59529L22.3444 10.2353C22.331 10.302 22.3244 10.3953 22.3244 10.5153C22.3244 11.0886 22.5844 11.3753 23.1044 11.3753H23.8244C23.891 11.3753 23.9444 11.402 23.9844 11.4553C24.0244 11.4953 24.0377 11.5486 24.0244 11.6153L23.7444 13.9353C23.7177 14.082 23.631 14.1686 23.4844 14.1953C22.8444 14.222 22.3844 14.2353 22.1044 14.2353C21.0777 14.2353 20.311 14.0886 19.8044 13.7953C19.311 13.502 19.0644 12.9553 19.0644 12.1553C19.0644 12.0486 19.0777 11.862 19.1044 11.5953L19.7044 6.59529C19.731 6.52863 19.7044 6.49529 19.6244 6.49529H18.5244C18.4577 6.49529 18.4044 6.47529 18.3644 6.43529C18.3244 6.38196 18.311 6.32196 18.3244 6.25529L18.5844 4.07529C18.5977 4.00863 18.6244 3.95529 18.6644 3.91529C18.7177 3.86196 18.7777 3.83529 18.8444 3.83529H19.9444C20.0244 3.83529 20.0644 3.80196 20.0644 3.73529L20.3644 1.31529C20.3777 1.24863 20.4044 1.19529 20.4444 1.15529C20.4977 1.10196 20.5577 1.07529 20.6244 1.07529H23.2444C23.311 1.07529 23.3644 1.10196 23.4044 1.15529C23.4444 1.19529 23.4577 1.24863 23.4444 1.31529L23.1444 3.73529C23.1444 3.80196 23.171 3.83529 23.2244 3.83529H25.0044C25.071 3.83529 25.1244 3.86196 25.1644 3.91529C25.2044 3.95529 25.2177 4.00863 25.2044 4.07529L24.9244 6.25529Z" fill="black"/>
<path d="M32.2848 4.07529C32.2982 4.00863 32.3248 3.95529 32.3648 3.91529C32.4182 3.86196 32.4782 3.83529 32.5448 3.83529H35.3048C35.3715 3.83529 35.4248 3.86196 35.4648 3.91529C35.5048 3.95529 35.5182 4.00863 35.5048 4.07529L34.3048 13.9353C34.2915 14.002 34.2582 14.062 34.2048 14.1153C34.1648 14.1553 34.1115 14.1753 34.0448 14.1753H31.2848C31.2182 14.1753 31.1648 14.1553 31.1248 14.1153C31.0848 14.062 31.0715 14.002 31.0848 13.9353L31.1648 13.2353C31.1782 13.1953 31.1715 13.1686 31.1448 13.1553C31.1182 13.142 31.0915 13.1553 31.0648 13.1953C30.4515 13.9553 29.5848 14.3353 28.4648 14.3353C27.5848 14.3353 26.8848 14.082 26.3648 13.5753C25.8448 13.0553 25.5848 12.322 25.5848 11.3753C25.5848 11.082 25.5982 10.8553 25.6248 10.6953L26.4248 4.07529C26.4382 4.00863 26.4715 3.95529 26.5248 3.91529C26.5782 3.86196 26.6382 3.83529 26.7048 3.83529H29.4448C29.5115 3.83529 29.5648 3.86196 29.6048 3.91529C29.6448 3.95529 29.6582 4.00863 29.6448 4.07529L28.9248 9.93529L28.9048 10.1953C28.9048 10.5953 29.0048 10.9086 29.2048 11.1353C29.4048 11.362 29.6848 11.4753 30.0448 11.4753C30.4048 11.4753 30.7182 11.362 30.9848 11.1353C31.2515 10.9086 31.4382 10.6086 31.5448 10.2353L32.2848 4.07529Z" fill="black"/>
<path d="M42.5094 3.69529C42.9627 3.69529 43.316 3.78196 43.5694 3.95529C43.6627 4.03529 43.6894 4.13529 43.6494 4.25529L42.8694 7.03529C42.8294 7.19529 42.7294 7.24196 42.5694 7.17529C42.356 7.12196 42.136 7.09529 41.9094 7.09529C41.696 7.09529 41.5294 7.10863 41.4094 7.13529C41.0094 7.18862 40.6494 7.34863 40.3294 7.61529C40.0227 7.88196 39.8427 8.23529 39.7894 8.67529L39.1494 13.9353C39.136 14.002 39.1027 14.062 39.0494 14.1153C39.0094 14.1553 38.956 14.1753 38.8894 14.1753H36.1294C36.0627 14.1753 36.0094 14.1553 35.9694 14.1153C35.9294 14.062 35.916 14.002 35.9294 13.9353L37.1294 4.07529C37.1427 4.00863 37.1694 3.95529 37.2094 3.91529C37.2627 3.86196 37.3227 3.83529 37.3894 3.83529H40.1494C40.216 3.83529 40.2694 3.86196 40.3094 3.91529C40.3494 3.95529 40.3627 4.00863 40.3494 4.07529L40.2694 4.71529C40.2694 4.75529 40.2827 4.78196 40.3094 4.79529C40.336 4.80863 40.356 4.79529 40.3694 4.75529C40.9694 4.04863 41.6827 3.69529 42.5094 3.69529Z" fill="black"/>
<path d="M53.1755 8.09529C53.1888 8.49529 53.1488 9.02196 53.0555 9.67529C53.0155 9.83529 52.9155 9.91529 52.7555 9.91529H46.8555C46.7755 9.91529 46.7355 9.94863 46.7355 10.0153C46.7488 10.2153 46.7888 10.4086 46.8555 10.5953C46.9755 10.8753 47.1821 11.102 47.4755 11.2753C47.7688 11.4486 48.1421 11.5353 48.5955 11.5353C49.3955 11.5353 50.0688 11.262 50.6155 10.7153C50.6688 10.6486 50.7288 10.6153 50.7955 10.6153C50.8488 10.6153 50.8955 10.642 50.9355 10.6953L52.2155 12.4553C52.2555 12.4953 52.2755 12.542 52.2755 12.5953C52.2755 12.6486 52.2421 12.7086 52.1755 12.7753C51.6688 13.282 51.0621 13.6686 50.3555 13.9353C49.6621 14.202 48.9221 14.3353 48.1355 14.3353C46.9621 14.3353 45.9955 14.0753 45.2355 13.5553C44.4755 13.022 43.9688 12.282 43.7155 11.3353C43.5955 10.8953 43.5355 10.422 43.5355 9.91529C43.5355 9.63529 43.5555 9.33529 43.5955 9.01529C43.6755 8.28196 43.8688 7.55529 44.1755 6.83529C44.6288 5.84863 45.2755 5.07529 46.1155 4.51529C46.9688 3.94196 47.9221 3.65529 48.9755 3.65529C49.8288 3.65529 50.5688 3.84863 51.1955 4.23529C51.8221 4.60863 52.3021 5.13529 52.6355 5.81529C52.9821 6.48196 53.1621 7.24196 53.1755 8.09529ZM48.6155 6.51529C47.9621 6.51529 47.4755 6.84196 47.1555 7.49529C47.1155 7.58863 47.0688 7.72863 47.0155 7.91529C46.9888 7.98196 47.0088 8.01529 47.0755 8.01529H49.8355C49.9021 8.01529 49.9355 7.98196 49.9355 7.91529C49.9355 7.82196 49.9221 7.69529 49.8955 7.53529C49.8421 7.20196 49.7021 6.94863 49.4755 6.77529C49.2621 6.60196 48.9755 6.51529 48.6155 6.51529Z" fill="black"/>
<path d="M60.7056 6.25529C60.7056 6.32196 60.679 6.38196 60.6256 6.43529C60.5723 6.47529 60.5123 6.49529 60.4456 6.49529H58.6856C58.619 6.49529 58.5856 6.52863 58.5856 6.59529L58.1256 10.2353C58.1123 10.302 58.1056 10.3953 58.1056 10.5153C58.1056 11.0886 58.3656 11.3753 58.8856 11.3753H59.6056C59.6723 11.3753 59.7256 11.402 59.7656 11.4553C59.8056 11.4953 59.819 11.5486 59.8056 11.6153L59.5256 13.9353C59.499 14.082 59.4123 14.1686 59.2656 14.1953C58.6256 14.222 58.1656 14.2353 57.8856 14.2353C56.859 14.2353 56.0923 14.0886 55.5856 13.7953C55.0923 13.502 54.8456 12.9553 54.8456 12.1553C54.8456 12.0486 54.859 11.862 54.8856 11.5953L55.4856 6.59529C55.5123 6.52863 55.4856 6.49529 55.4056 6.49529H54.3056C54.239 6.49529 54.1856 6.47529 54.1456 6.43529C54.1056 6.38196 54.0923 6.32196 54.1056 6.25529L54.3656 4.07529C54.379 4.00863 54.4056 3.95529 54.4456 3.91529C54.499 3.86196 54.559 3.83529 54.6256 3.83529H55.7256C55.8056 3.83529 55.8456 3.80196 55.8456 3.73529L56.1456 1.31529C56.159 1.24863 56.1856 1.19529 56.2256 1.15529C56.279 1.10196 56.339 1.07529 56.4056 1.07529H59.0256C59.0923 1.07529 59.1456 1.10196 59.1856 1.15529C59.2256 1.19529 59.239 1.24863 59.2256 1.31529L58.9256 3.73529C58.9256 3.80196 58.9523 3.83529 59.0056 3.83529H60.7856C60.8523 3.83529 60.9056 3.86196 60.9456 3.91529C60.9856 3.95529 60.999 4.00863 60.9856 4.07529L60.7056 6.25529Z" fill="black"/>
<path d="M67.6461 3.69529C68.0994 3.69529 68.4528 3.78196 68.7061 3.95529C68.7994 4.03529 68.8261 4.13529 68.7861 4.25529L68.0061 7.03529C67.9661 7.19529 67.8661 7.24196 67.7061 7.17529C67.4928 7.12196 67.2728 7.09529 67.0461 7.09529C66.8328 7.09529 66.6661 7.10863 66.5461 7.13529C66.1461 7.18862 65.7861 7.34863 65.4661 7.61529C65.1594 7.88196 64.9794 8.23529 64.9261 8.67529L64.2861 13.9353C64.2728 14.002 64.2394 14.062 64.1861 14.1153C64.1461 14.1553 64.0928 14.1753 64.0261 14.1753H61.2661C61.1994 14.1753 61.1461 14.1553 61.1061 14.1153C61.0661 14.062 61.0528 14.002 61.0661 13.9353L62.2661 4.07529C62.2794 4.00863 62.3061 3.95529 62.3461 3.91529C62.3994 3.86196 62.4594 3.83529 62.5261 3.83529H65.2861C65.3528 3.83529 65.4061 3.86196 65.4461 3.91529C65.4861 3.95529 65.4994 4.00863 65.4861 4.07529L65.4061 4.71529C65.4061 4.75529 65.4194 4.78196 65.4461 4.79529C65.4728 4.80863 65.4928 4.79529 65.5061 4.75529C66.1061 4.04863 66.8194 3.69529 67.6461 3.69529Z" fill="black"/>
<path d="M75.4978 4.07529C75.5111 4.00863 75.5378 3.95529 75.5778 3.91529C75.6311 3.86196 75.6911 3.83529 75.7578 3.83529H78.5178C78.5845 3.83529 78.6378 3.86196 78.6778 3.91529C78.7178 3.95529 78.7311 4.00863 78.7178 4.07529L77.4978 13.9353C77.4845 14.002 77.4511 14.062 77.3978 14.1153C77.3578 14.1553 77.3045 14.1753 77.2378 14.1753H74.4778C74.4111 14.1753 74.3578 14.1553 74.3178 14.1153C74.2778 14.062 74.2645 14.002 74.2778 13.9353L74.3778 13.1753C74.3778 13.1353 74.3645 13.1086 74.3378 13.0953C74.3245 13.082 74.2978 13.0953 74.2578 13.1353C73.6311 13.9353 72.8111 14.3353 71.7978 14.3353C70.9311 14.3353 70.1911 14.062 69.5778 13.5153C68.9778 12.9553 68.5978 12.202 68.4378 11.2553C68.3845 10.9753 68.3578 10.6553 68.3578 10.2953C68.3578 9.92196 68.3911 9.48196 68.4578 8.97529C68.5645 7.98862 68.7978 7.13529 69.1578 6.41529C69.5312 5.61529 70.0778 4.96196 70.7978 4.45529C71.5178 3.93529 72.3311 3.67529 73.2378 3.67529C74.2245 3.67529 74.9111 4.01529 75.2978 4.69529C75.3245 4.73529 75.3512 4.74863 75.3778 4.73529C75.4045 4.72196 75.4178 4.69529 75.4178 4.65529L75.4978 4.07529ZM74.4378 10.5753C74.6645 10.202 74.8111 9.68196 74.8778 9.01529C74.9178 8.69529 74.9378 8.42196 74.9378 8.19529C74.9378 7.88862 74.8978 7.61529 74.8178 7.37529C74.7378 7.10863 74.5978 6.90196 74.3978 6.75529C74.2111 6.59529 73.9711 6.51529 73.6778 6.51529C73.3711 6.51529 73.0978 6.59529 72.8578 6.75529C72.6178 6.91529 72.4245 7.13529 72.2778 7.41529C72.0645 7.77529 71.9111 8.30863 71.8178 9.01529C71.7911 9.20196 71.7778 9.45529 71.7778 9.77529C71.7778 10.122 71.8111 10.3953 71.8778 10.5953C71.9578 10.862 72.0978 11.082 72.2978 11.2553C72.5111 11.4153 72.7711 11.4953 73.0778 11.4953C73.6645 11.4953 74.1178 11.1886 74.4378 10.5753Z" fill="black"/>
<path d="M89.4525 6.71529C89.5192 7.14196 89.5525 7.54196 89.5525 7.91529C89.5525 8.15529 89.5258 8.52862 89.4725 9.03529C89.3392 9.99529 89.0992 10.8353 88.7525 11.5553C88.3525 12.3953 87.7925 13.0686 87.0725 13.5753C86.3658 14.082 85.5458 14.3353 84.6125 14.3353C83.6925 14.3353 83.0258 14.022 82.6125 13.3953C82.5858 13.3553 82.5592 13.342 82.5325 13.3553C82.5058 13.3686 82.4925 13.3953 82.4925 13.4353L81.9725 17.5953C81.9592 17.662 81.9258 17.7153 81.8725 17.7553C81.8325 17.8086 81.7792 17.8353 81.7125 17.8353H78.9525C78.8858 17.8353 78.8325 17.8086 78.7925 17.7553C78.7525 17.7153 78.7392 17.662 78.7525 17.5953L80.4125 4.07529C80.4258 4.00863 80.4525 3.95529 80.4925 3.91529C80.5458 3.86196 80.6058 3.83529 80.6725 3.83529H83.4325C83.4992 3.83529 83.5525 3.86196 83.5925 3.91529C83.6325 3.95529 83.6458 4.00863 83.6325 4.07529L83.5525 4.73529C83.5525 4.81529 83.5925 4.82863 83.6725 4.77529C84.2725 4.04196 85.0592 3.67529 86.0325 3.67529C86.9125 3.67529 87.6525 3.94863 88.2525 4.49529C88.8658 5.02863 89.2658 5.76862 89.4525 6.71529ZM85.5125 10.7753C85.8325 10.3086 86.0325 9.70862 86.1125 8.97529C86.1392 8.82862 86.1525 8.61529 86.1525 8.33529C86.1525 7.90863 86.0925 7.55529 85.9725 7.27529C85.7858 6.76863 85.4125 6.51529 84.8525 6.51529C84.3325 6.51529 83.9058 6.76863 83.5725 7.27529C83.2925 7.75529 83.1125 8.32862 83.0325 8.99529C83.0058 9.15529 82.9925 9.38196 82.9925 9.67529C82.9925 10.102 83.0525 10.4753 83.1725 10.7953C83.3858 11.262 83.7392 11.4953 84.2325 11.4953C84.7792 11.4953 85.2058 11.2553 85.5125 10.7753Z" fill="black"/>
</svg>
